<svg id="visual" viewBox="0 0 1960 1080" width="1960" height="1080" xmlns="http://www.w3.org/2000/svg" xmlns:xlink="http://www.w3.org/1999/xlink" version="1.1"><rect x="0" y="0" width="1960" height="1080" fill="#fef6e4"></rect><path d="M0 827L65.3 821.8C130.7 816.7 261.3 806.3 392 798.8C522.7 791.3 653.3 786.7 784 791.7C914.7 796.7 1045.3 811.3 1176 818.3C1306.7 825.3 1437.3 824.7 1568 815.2C1698.7 805.7 1829.3 787.3 1894.7 778.2L1960 769L1960 1081L1894.7 1081C1829.3 1081 1698.7 1081 1568 1081C1437.3 1081 1306.7 1081 1176 1081C1045.3 1081 914.7 1081 784 1081C653.3 1081 522.7 1081 392 1081C261.3 1081 130.7 1081 65.3 1081L0 1081Z" fill="#f3d2c1" stroke-linecap="round" stroke-linejoin="miter"></path></svg>